  0
SECTION
  2
HEADER
  9
$ACADVER
  1
AC1009
  9
$FILLMODE
 70
 0
  9
$SPLFRAME
 70
 1
  9
$EXTMIN
 10
0
 20
0
 30
0.0
  9
$EXTMAX
 10
1058.33
 20
1058.33
 30
0.0
  0
ENDSEC
  0
SECTION
  2
TABLES
  0
TABLE
  2
LAYER
 70
1
  0
LAYER
  2
0
 70
     0
 62
     7
  6
CONTINUOUS
  0
ENDTAB
  0
ENDSEC
  0
SECTION
  2
ENTITIES
  0
POLYLINE
  8
0
 62
     0
 66
     1
 10
0
 20
0
 30
0.0
 70
     1
 40
0.0283465
 41
0.0283465
  0
VERTEX
  8
0
 10
46.028
 20
76.5281
 30
0.0
 40
0.01
 41
0.01
  0
VERTEX
  8
0
 10
46.028
 20
76.6505
 30
0.0
 40
0.01
 41
0.01
  0
VERTEX
  8
0
 10
45.9285
 20
77.0146
 30
0.0
 40
0.01
 41
0.01
  0
VERTEX
  8
0
 10
45.6614
 20
77.4114
 30
0.0
 40
0.01
 41
0.01
  0
VERTEX
  8
0
 10
45.2632
 20
77.6799
 30
0.0
 40
0.01
 41
0.01
  0
VERTEX
  8
0
 10
44.8991
 20
77.778
 30
0.0
 40
0.01
 41
0.01
  0
VERTEX
  8
0
 10
44.7781
 20
77.778
 30
0.0
 40
0.01
 41
0.01
  0
VERTEX
  8
0
 10
44.6553
 20
77.778
 30
0.0
 40
0.01
 41
0.01
  0
VERTEX
  8
0
 10
44.2916
 20
77.6799
 30
0.0
 40
0.01
 41
0.01
  0
VERTEX
  8
0
 10
43.8947
 20
77.4114
 30
0.0
 40
0.01
 41
0.01
  0
VERTEX
  8
0
 10
43.6259
 20
77.0146
 30
0.0
 40
0.01
 41
0.01
  0
VERTEX
  8
0
 10
43.5282
 20
76.6505
 30
0.0
 40
0.01
 41
0.01
  0
VERTEX
  8
0
 10
43.5282
 20
76.5281
 30
0.0
 40
0.01
 41
0.01
  0
VERTEX
  8
0
 10
43.5282
 20
76.4067
 30
0.0
 40
0.01
 41
0.01
  0
VERTEX
  8
0
 10
43.6259
 20
76.043
 30
0.0
 40
0.01
 41
0.01
  0
VERTEX
  8
0
 10
43.8947
 20
75.6447
 30
0.0
 40
0.01
 41
0.01
  0
VERTEX
  8
0
 10
44.2916
 20
75.3773
 30
0.0
 40
0.01
 41
0.01
  0
VERTEX
  8
0
 10
44.6553
 20
75.2782
 30
0.0
 40
0.01
 41
0.01
  0
VERTEX
  8
0
 10
44.7781
 20
75.2782
 30
0.0
 40
0.01
 41
0.01
  0
VERTEX
  8
0
 10
44.8991
 20
75.2782
 30
0.0
 40
0.01
 41
0.01
  0
VERTEX
  8
0
 10
45.2632
 20
75.3773
 30
0.0
 40
0.01
 41
0.01
  0
VERTEX
  8
0
 10
45.6614
 20
75.6447
 30
0.0
 40
0.01
 41
0.01
  0
VERTEX
  8
0
 10
45.9285
 20
76.043
 30
0.0
 40
0.01
 41
0.01
  0
VERTEX
  8
0
 10
46.028
 20
76.4067
 30
0.0
 40
0.01
 41
0.01
  0
VERTEX
  8
0
 10
46.028
 20
76.5281
 30
0.0
 40
0.01
 41
0.01
  0
SEQEND
 8
0
  0
POLYLINE
  8
0
 62
     0
 66
     1
 10
0
 20
0
 30
0.0
 70
     1
 40
0.0283465
 41
0.0283465
  0
VERTEX
  8
0
 10
71.0283
 20
38.0284
 30
0.0
 40
0.01
 41
0.01
  0
VERTEX
  8
0
 10
71.0283
 20
38.1512
 30
0.0
 40
0.01
 41
0.01
  0
VERTEX
  8
0
 10
70.9291
 20
38.5149
 30
0.0
 40
0.01
 41
0.01
  0
VERTEX
  8
0
 10
70.6617
 20
38.9117
 30
0.0
 40
0.01
 41
0.01
  0
VERTEX
  8
0
 10
70.2635
 20
39.1806
 30
0.0
 40
0.01
 41
0.01
  0
VERTEX
  8
0
 10
69.8997
 20
39.2783
 30
0.0
 40
0.01
 41
0.01
  0
VERTEX
  8
0
 10
69.7784
 20
39.2783
 30
0.0
 40
0.01
 41
0.01
  0
VERTEX
  8
0
 10
69.6556
 20
39.2783
 30
0.0
 40
0.01
 41
0.01
  0
VERTEX
  8
0
 10
69.2919
 20
39.1806
 30
0.0
 40
0.01
 41
0.01
  0
VERTEX
  8
0
 10
68.895
 20
38.9117
 30
0.0
 40
0.01
 41
0.01
  0
VERTEX
  8
0
 10
68.6262
 20
38.5149
 30
0.0
 40
0.01
 41
0.01
  0
VERTEX
  8
0
 10
68.5285
 20
38.1512
 30
0.0
 40
0.01
 41
0.01
  0
VERTEX
  8
0
 10
68.5285
 20
38.0284
 30
0.0
 40
0.01
 41
0.01
  0
VERTEX
  8
0
 10
68.5285
 20
37.907
 30
0.0
 40
0.01
 41
0.01
  0
VERTEX
  8
0
 10
68.6262
 20
37.5433
 30
0.0
 40
0.01
 41
0.01
  0
VERTEX
  8
0
 10
68.895
 20
37.145
 30
0.0
 40
0.01
 41
0.01
  0
VERTEX
  8
0
 10
69.2919
 20
36.8762
 30
0.0
 40
0.01
 41
0.01
  0
VERTEX
  8
0
 10
69.6556
 20
36.7771
 30
0.0
 40
0.01
 41
0.01
  0
VERTEX
  8
0
 10
69.7784
 20
36.7771
 30
0.0
 40
0.01
 41
0.01
  0
VERTEX
  8
0
 10
69.8997
 20
36.7771
 30
0.0
 40
0.01
 41
0.01
  0
VERTEX
  8
0
 10
70.2635
 20
36.8762
 30
0.0
 40
0.01
 41
0.01
  0
VERTEX
  8
0
 10
70.6617
 20
37.145
 30
0.0
 40
0.01
 41
0.01
  0
VERTEX
  8
0
 10
70.9291
 20
37.5433
 30
0.0
 40
0.01
 41
0.01
  0
VERTEX
  8
0
 10
71.0283
 20
37.907
 30
0.0
 40
0.01
 41
0.01
  0
VERTEX
  8
0
 10
71.0283
 20
38.0284
 30
0.0
 40
0.01
 41
0.01
  0
SEQEND
 8
0
  0
POLYLINE
  8
0
 62
     0
 66
     1
 10
0
 20
0
 30
0.0
 40
0.0283465
 41
0.0283465
  0
VERTEX
  8
0
 10
41.5272
 20
36.7771
 30
0.0
 40
0.01
 41
0.01
  0
VERTEX
  8
0
 10
41.5272
 20
40.0279
 30
0.0
 40
0.01
 41
0.01
  0
VERTEX
  8
0
 10
41.5272
 20
40.0279
 30
0.0
 40
0.01
 41
0.01
  0
VERTEX
  8
0
 10
41.5272
 20
40.174
 30
0.0
 40
0.01
 41
0.01
  0
VERTEX
  8
0
 10
41.4087
 20
40.6121
 30
0.0
 40
0.01
 41
0.01
  0
VERTEX
  8
0
 10
41.0877
 20
41.0891
 30
0.0
 40
0.01
 41
0.01
  0
VERTEX
  8
0
 10
40.6107
 20
41.4101
 30
0.0
 40
0.01
 41
0.01
  0
VERTEX
  8
0
 10
40.1726
 20
41.5272
 30
0.0
 40
0.01
 41
0.01
  0
VERTEX
  8
0
 10
40.0279
 20
41.5272
 30
0.0
 40
0.01
 41
0.01
  0
VERTEX
  8
0
 10
36.7785
 20
41.5272
 30
0.0
 40
0.01
 41
0.01
  0
VERTEX
  8
0
 10
36.7785
 20
41.5272
 30
0.0
 40
0.01
 41
0.01
  0
VERTEX
  8
0
 10
36.6324
 20
41.5272
 30
0.0
 40
0.01
 41
0.01
  0
VERTEX
  8
0
 10
36.1943
 20
41.6458
 30
0.0
 40
0.01
 41
0.01
  0
VERTEX
  8
0
 10
35.7173
 20
41.9682
 30
0.0
 40
0.01
 41
0.01
  0
VERTEX
  8
0
 10
35.3949
 20
42.4448
 30
0.0
 40
0.01
 41
0.01
  0
VERTEX
  8
0
 10
35.2778
 20
42.8833
 30
0.0
 40
0.01
 41
0.01
  0
VERTEX
  8
0
 10
35.2778
 20
43.028
 30
0.0
 40
0.01
 41
0.01
  0
VERTEX
  8
0
 10
35.2778
 20
77.778
 30
0.0
 40
0.01
 41
0.01
  0
VERTEX
  8
0
 10
35.2778
 20
77.778
 30
0.0
 40
0.01
 41
0.01
  0
VERTEX
  8
0
 10
35.2778
 20
77.924
 30
0.0
 40
0.01
 41
0.01
  0
VERTEX
  8
0
 10
35.3949
 20
78.3622
 30
0.0
 40
0.01
 41
0.01
  0
VERTEX
  8
0
 10
35.7173
 20
78.8388
 30
0.0
 40
0.01
 41
0.01
  0
VERTEX
  8
0
 10
36.1943
 20
79.1602
 30
0.0
 40
0.01
 41
0.01
  0
VERTEX
  8
0
 10
36.6324
 20
79.2773
 30
0.0
 40
0.01
 41
0.01
  0
VERTEX
  8
0
 10
36.7785
 20
79.2773
 30
0.0
 40
0.01
 41
0.01
  0
VERTEX
  8
0
 10
71.5285
 20
79.2773
 30
0.0
 40
0.01
 41
0.01
  0
VERTEX
  8
0
 10
71.5285
 20
79.2773
 30
0.0
 40
0.01
 41
0.01
  0
VERTEX
  8
0
 10
71.6732
 20
79.2773
 30
0.0
 40
0.01
 41
0.01
  0
VERTEX
  8
0
 10
72.1113
 20
79.1602
 30
0.0
 40
0.01
 41
0.01
  0
VERTEX
  8
0
 10
72.5883
 20
78.8388
 30
0.0
 40
0.01
 41
0.01
  0
VERTEX
  8
0
 10
72.9093
 20
78.3622
 30
0.0
 40
0.01
 41
0.01
  0
VERTEX
  8
0
 10
73.0278
 20
77.924
 30
0.0
 40
0.01
 41
0.01
  0
VERTEX
  8
0
 10
73.0278
 20
77.778
 30
0.0
 40
0.01
 41
0.01
  0
VERTEX
  8
0
 10
73.0278
 20
74.5285
 30
0.0
 40
0.01
 41
0.01
  0
VERTEX
  8
0
 10
73.0278
 20
74.5285
 30
0.0
 40
0.01
 41
0.01
  0
VERTEX
  8
0
 10
73.0278
 20
74.3839
 30
0.0
 40
0.01
 41
0.01
  0
VERTEX
  8
0
 10
73.1449
 20
73.9454
 30
0.0
 40
0.01
 41
0.01
  0
VERTEX
  8
0
 10
73.4674
 20
73.4688
 30
0.0
 40
0.01
 41
0.01
  0
VERTEX
  8
0
 10
73.944
 20
73.1464
 30
0.0
 40
0.01
 41
0.01
  0
VERTEX
  8
0
 10
74.3825
 20
73.0278
 30
0.0
 40
0.01
 41
0.01
  0
VERTEX
  8
0
 10
74.5285
 20
73.0278
 30
0.0
 40
0.01
 41
0.01
  0
VERTEX
  8
0
 10
77.778
 20
73.0278
 30
0.0
 40
0.01
 41
0.01
  0
VERTEX
  8
0
 10
77.778
 20
73.0278
 30
0.0
 40
0.01
 41
0.01
  0
VERTEX
  8
0
 10
77.9226
 20
73.0278
 30
0.0
 40
0.01
 41
0.01
  0
VERTEX
  8
0
 10
78.3608
 20
72.9107
 30
0.0
 40
0.01
 41
0.01
  0
VERTEX
  8
0
 10
78.8377
 20
72.5897
 30
0.0
 40
0.01
 41
0.01
  0
VERTEX
  8
0
 10
79.1587
 20
72.1127
 30
0.0
 40
0.01
 41
0.01
  0
VERTEX
  8
0
 10
79.2773
 20
71.6746
 30
0.0
 40
0.01
 41
0.01
  0
VERTEX
  8
0
 10
79.2773
 20
71.5285
 30
0.0
 40
0.01
 41
0.01
  0
VERTEX
  8
0
 10
79.2773
 20
36.7785
 30
0.0
 40
0.01
 41
0.01
  0
VERTEX
  8
0
 10
79.2787
 20
36.7785
 30
0.0
 40
0.01
 41
0.01
  0
VERTEX
  8
0
 10
79.2787
 20
36.6339
 30
0.0
 40
0.01
 41
0.01
  0
VERTEX
  8
0
 10
79.1602
 20
36.1957
 30
0.0
 40
0.01
 41
0.01
  0
VERTEX
  8
0
 10
78.8377
 20
35.7188
 30
0.0
 40
0.01
 41
0.01
  0
VERTEX
  8
0
 10
78.3608
 20
35.3963
 30
0.0
 40
0.01
 41
0.01
  0
VERTEX
  8
0
 10
77.9226
 20
35.2778
 30
0.0
 40
0.01
 41
0.01
  0
VERTEX
  8
0
 10
77.778
 20
35.2778
 30
0.0
 40
0.01
 41
0.01
  0
VERTEX
  8
0
 10
43.028
 20
35.2778
 30
0.0
 40
0.01
 41
0.01
  0
VERTEX
  8
0
 10
43.028
 20
35.2778
 30
0.0
 40
0.01
 41
0.01
  0
VERTEX
  8
0
 10
42.8819
 20
35.2778
 30
0.0
 40
0.01
 41
0.01
  0
VERTEX
  8
0
 10
42.4438
 20
35.3963
 30
0.0
 40
0.01
 41
0.01
  0
VERTEX
  8
0
 10
41.9668
 20
35.7188
 30
0.0
 40
0.01
 41
0.01
  0
VERTEX
  8
0
 10
41.6444
 20
36.1957
 30
0.0
 40
0.01
 41
0.01
  0
VERTEX
  8
0
 10
41.5272
 20
36.6339
 30
0.0
 40
0.01
 41
0.01
  0
VERTEX
  8
0
 10
41.5272
 20
36.7785
 30
0.0
 40
0.01
 41
0.01
  0
SEQEND
 8
0
  0
ENDSEC
  0
EOF
