  0
SECTION
  2
HEADER
  9
$ACADVER
  1
AC1009
  9
$FILLMODE
 70
 0
  9
$SPLFRAME
 70
 1
  9
$EXTMIN
 10
0
 20
0
 30
0.0
  9
$EXTMAX
 10
1058.33
 20
1058.33
 30
0.0
  0
ENDSEC
  0
SECTION
  2
TABLES
  0
TABLE
  2
LAYER
 70
1
  0
LAYER
  2
0
 70
     0
 62
     7
  6
CONTINUOUS
  0
ENDTAB
  0
ENDSEC
  0
SECTION
  2
ENTITIES
  0
POLYLINE
  8
0
 62
     0
 66
     1
 10
0
 20
0
 30
0.0
 70
     1
 40
0.0283465
 41
0.0283465
  0
VERTEX
  8
0
 10
47.2779
 20
76.5281
 30
0.0
 40
0.01
 41
0.01
  0
VERTEX
  8
0
 10
47.2779
 20
76.7719
 30
0.0
 40
0.01
 41
0.01
  0
VERTEX
  8
0
 10
47.0807
 20
77.501
 30
0.0
 40
0.01
 41
0.01
  0
VERTEX
  8
0
 10
46.5448
 20
78.2959
 30
0.0
 40
0.01
 41
0.01
  0
VERTEX
  8
0
 10
45.7496
 20
78.8321
 30
0.0
 40
0.01
 41
0.01
  0
VERTEX
  8
0
 10
45.0204
 20
79.0279
 30
0.0
 40
0.01
 41
0.01
  0
VERTEX
  8
0
 10
44.7781
 20
79.0279
 30
0.0
 40
0.01
 41
0.01
  0
VERTEX
  8
0
 10
44.534
 20
79.0279
 30
0.0
 40
0.01
 41
0.01
  0
VERTEX
  8
0
 10
43.8051
 20
78.8321
 30
0.0
 40
0.01
 41
0.01
  0
VERTEX
  8
0
 10
43.01
 20
78.2959
 30
0.0
 40
0.01
 41
0.01
  0
VERTEX
  8
0
 10
42.4737
 20
77.501
 30
0.0
 40
0.01
 41
0.01
  0
VERTEX
  8
0
 10
42.2783
 20
76.7719
 30
0.0
 40
0.01
 41
0.01
  0
VERTEX
  8
0
 10
42.2783
 20
76.5281
 30
0.0
 40
0.01
 41
0.01
  0
VERTEX
  8
0
 10
42.2783
 20
76.2854
 30
0.0
 40
0.01
 41
0.01
  0
VERTEX
  8
0
 10
42.4737
 20
75.5565
 30
0.0
 40
0.01
 41
0.01
  0
VERTEX
  8
0
 10
43.01
 20
74.7614
 30
0.0
 40
0.01
 41
0.01
  0
VERTEX
  8
0
 10
43.8051
 20
74.2251
 30
0.0
 40
0.01
 41
0.01
  0
VERTEX
  8
0
 10
44.534
 20
74.0283
 30
0.0
 40
0.01
 41
0.01
  0
VERTEX
  8
0
 10
44.7781
 20
74.0283
 30
0.0
 40
0.01
 41
0.01
  0
VERTEX
  8
0
 10
45.0204
 20
74.0283
 30
0.0
 40
0.01
 41
0.01
  0
VERTEX
  8
0
 10
45.7496
 20
74.2251
 30
0.0
 40
0.01
 41
0.01
  0
VERTEX
  8
0
 10
46.5448
 20
74.7614
 30
0.0
 40
0.01
 41
0.01
  0
VERTEX
  8
0
 10
47.0807
 20
75.5565
 30
0.0
 40
0.01
 41
0.01
  0
VERTEX
  8
0
 10
47.2779
 20
76.2854
 30
0.0
 40
0.01
 41
0.01
  0
VERTEX
  8
0
 10
47.2779
 20
76.5281
 30
0.0
 40
0.01
 41
0.01
  0
SEQEND
 8
0
  0
POLYLINE
  8
0
 62
     0
 66
     1
 10
0
 20
0
 30
0.0
 70
     1
 40
0.0283465
 41
0.0283465
  0
VERTEX
  8
0
 10
72.2782
 20
38.0284
 30
0.0
 40
0.01
 41
0.01
  0
VERTEX
  8
0
 10
72.2782
 20
38.2722
 30
0.0
 40
0.01
 41
0.01
  0
VERTEX
  8
0
 10
72.081
 20
39.0013
 30
0.0
 40
0.01
 41
0.01
  0
VERTEX
  8
0
 10
71.5451
 20
39.7965
 30
0.0
 40
0.01
 41
0.01
  0
VERTEX
  8
0
 10
70.7499
 20
40.3324
 30
0.0
 40
0.01
 41
0.01
  0
VERTEX
  8
0
 10
70.0207
 20
40.5282
 30
0.0
 40
0.01
 41
0.01
  0
VERTEX
  8
0
 10
69.7784
 20
40.5282
 30
0.0
 40
0.01
 41
0.01
  0
VERTEX
  8
0
 10
69.5343
 20
40.5282
 30
0.0
 40
0.01
 41
0.01
  0
VERTEX
  8
0
 10
68.8054
 20
40.3324
 30
0.0
 40
0.01
 41
0.01
  0
VERTEX
  8
0
 10
68.0103
 20
39.7965
 30
0.0
 40
0.01
 41
0.01
  0
VERTEX
  8
0
 10
67.473
 20
39.0013
 30
0.0
 40
0.01
 41
0.01
  0
VERTEX
  8
0
 10
67.2772
 20
38.2722
 30
0.0
 40
0.01
 41
0.01
  0
VERTEX
  8
0
 10
67.2772
 20
38.0284
 30
0.0
 40
0.01
 41
0.01
  0
VERTEX
  8
0
 10
67.2772
 20
37.7857
 30
0.0
 40
0.01
 41
0.01
  0
VERTEX
  8
0
 10
67.473
 20
37.0568
 30
0.0
 40
0.01
 41
0.01
  0
VERTEX
  8
0
 10
68.0103
 20
36.2617
 30
0.0
 40
0.01
 41
0.01
  0
VERTEX
  8
0
 10
68.8054
 20
35.7244
 30
0.0
 40
0.01
 41
0.01
  0
VERTEX
  8
0
 10
69.5343
 20
35.5272
 30
0.0
 40
0.01
 41
0.01
  0
VERTEX
  8
0
 10
69.7784
 20
35.5272
 30
0.0
 40
0.01
 41
0.01
  0
VERTEX
  8
0
 10
70.0207
 20
35.5272
 30
0.0
 40
0.01
 41
0.01
  0
VERTEX
  8
0
 10
70.7499
 20
35.7244
 30
0.0
 40
0.01
 41
0.01
  0
VERTEX
  8
0
 10
71.5451
 20
36.2617
 30
0.0
 40
0.01
 41
0.01
  0
VERTEX
  8
0
 10
72.081
 20
37.0568
 30
0.0
 40
0.01
 41
0.01
  0
VERTEX
  8
0
 10
72.2782
 20
37.7857
 30
0.0
 40
0.01
 41
0.01
  0
VERTEX
  8
0
 10
72.2782
 20
38.0284
 30
0.0
 40
0.01
 41
0.01
  0
SEQEND
 8
0
  0
ENDSEC
  0
EOF
